<?xml version="1.0" encoding="UTF-8"?>
<svg id="Capa_2" data-name="Capa 2" xmlns="http://www.w3.org/2000/svg" viewBox="0 0 78.05 71.05">
  <defs>
    <style>
      .cls-1 {
        fill: #dbc7ba;
        stroke-width: 0px;
      }
    </style>
  </defs>
  <g id="Capa_1-2" data-name="Capa 1">
    <path class="cls-1" d="M64.54,2.47c-.59-.51-1.21-1.01-1.97-1.58l-.07-.05-.07.06c-4.91,4.4-12.39,4.46-17.39.14-.28-.24-.56-.5-.83-.78l-.1-.11-.07.13c-.31.59-.69,1.14-1.12,1.64-3.25,3.77-8.96,4.18-12.72.94-.11-.1-.22-.19-.33-.3l-.07-.07-.07.07c-3.07,2.86-7.77,2.95-10.95.21-.86-.74-1.54-1.63-2.03-2.66l-.06-.12-.1.07c-2.63,1.85-5.02,4.02-7.12,6.45C-4.6,22.82-2.78,47.52,13.52,61.59c16.3,14.07,41,12.25,55.07-4.05,14.07-16.3,12.25-41-4.05-55.07ZM50.86,20.44h-3.49c-3.44,0-4.51,2.13-4.51,4.32v5.19h7.67l-1.23,8h-6.45v19.34c-1.41.22-2.85.34-4.32.34s-2.91-.12-4.32-.34v-19.34h-7.03v-8h7.03v-6.1c0-6.94,4.13-10.77,10.45-10.77,3.03,0,6.19.54,6.19.54v6.81Z"/>
  </g>
</svg>