<?xml version="1.0" encoding="UTF-8"?>
<svg id="Capa_2" data-name="Capa 2" xmlns="http://www.w3.org/2000/svg" viewBox="0 0 79.35 79.35">
  <defs>
    <style>
      .cls-1 {
        fill: #dbc7ba;
        stroke-width: 0px;
      }
    </style>
  </defs>
  <g id="Capa_1-2" data-name="Capa 1">
    <g>
      <path class="cls-1" d="M53.26,26.07c-.32-.81-.69-1.39-1.3-2-.61-.61-1.19-.99-2-1.3-.61-.24-1.54-.52-3.24-.6-1.84-.08-2.39-.1-7.04-.1s-5.2.02-7.04.1c-1.7.08-2.62.36-3.24.6-.81.32-1.39.69-2,1.3-.61.61-.99,1.19-1.3,2-.24.61-.52,1.54-.6,3.24-.08,1.84-.1,2.39-.1,7.04s.02,5.2.1,7.04c.08,1.7.36,2.62.6,3.24.32.81.69,1.39,1.3,2,.61.61,1.19.99,2,1.3.61.24,1.54.52,3.24.6,1.84.08,2.39.1,7.04.1s5.2-.02,7.04-.1c1.7-.08,2.62-.36,3.24-.6.81-.32,1.39-.69,2-1.3.61-.61.99-1.19,1.3-2,.24-.61.52-1.54.6-3.24.08-1.84.1-2.39.1-7.04s-.02-5.2-.1-7.04c-.08-1.7-.36-2.62-.6-3.24ZM39.67,45.29c-4.94,0-8.95-4.01-8.95-8.95s4.01-8.95,8.95-8.95,8.95,4.01,8.95,8.95-4.01,8.95-8.95,8.95ZM48.98,29.14c-1.15,0-2.09-.94-2.09-2.09s.94-2.09,2.09-2.09,2.09.94,2.09,2.09-.94,2.09-2.09,2.09Z"/>
      <path class="cls-1" d="M39.67,30.54c-3.21,0-5.81,2.6-5.81,5.81s2.6,5.81,5.81,5.81,5.81-2.6,5.81-5.81-2.6-5.81-5.81-5.81Z"/>
      <path class="cls-1" d="M48.36.97C27.02-3.82,5.76,9.65.97,30.99c-4.79,21.34,8.68,42.6,30.02,47.39,3.35.75,6.8,1.07,10.23.94l.39-.02-.1-.38c-.31-1.18-.33-2.37-.06-3.55.88-3.91,4.67-6.46,8.63-5.81l.32.05.04-.32c.04-.29.08-.55.14-.8,1.01-4.52,5.51-7.36,10.03-6.35.78.18,1.54.47,2.26.87l.42.24.04-.48c.05-.57.14-1.13.25-1.65,1.41-6.3,7.31-10.48,13.72-9.72l.26.03.08-.25c.32-1.06.56-1.96.75-2.82C83.17,27.02,69.7,5.76,48.36.97ZM56.99,43.53c-.08,1.85-.38,3.12-.81,4.23-.45,1.15-1.04,2.12-2.01,3.09-.97.97-1.94,1.56-3.09,2.01-1.11.43-2.37.73-4.23.81-1.86.08-2.45.1-7.18.1s-5.33-.02-7.18-.1c-1.85-.08-3.12-.38-4.23-.81-1.15-.45-2.12-1.04-3.09-2.01-.97-.97-1.56-1.94-2.01-3.09-.43-1.11-.73-2.37-.81-4.23-.08-1.86-.1-2.45-.1-7.18s.02-5.33.1-7.18c.08-1.85.38-3.12.81-4.23.45-1.15,1.04-2.12,2.01-3.09.97-.97,1.94-1.56,3.09-2.01,1.11-.43,2.37-.73,4.23-.81,1.86-.08,2.45-.1,7.18-.1s5.33.02,7.18.1c1.85.08,3.12.38,4.23.81,1.15.45,2.12,1.04,3.09,2.01.97.97,1.56,1.94,2.01,3.09.43,1.11.73,2.37.81,4.23.08,1.86.1,2.45.1,7.18s-.02,5.33-.1,7.18Z"/>
    </g>
  </g>
</svg>