<?xml version="1.0" encoding="UTF-8"?>
<svg id="Capa_2" data-name="Capa 2" xmlns="http://www.w3.org/2000/svg" viewBox="0 0 52.87 48.43">
  <defs>
    <style>
      .cls-1 {
        fill: #dbc7ba;
        stroke-width: 0px;
      }
    </style>
  </defs>
  <g id="Capa_1-2" data-name="Capa 1">
    <g>
      <path class="cls-1" d="M46.46,9.16C36.93-1.88,20.2-3.11,9.16,6.41-1.88,15.94-3.11,32.67,6.41,43.71c1.5,1.73,3.22,3.27,5.11,4.56l.21.15.1-.24c.3-.75.77-1.4,1.38-1.93,2.02-1.75,5.07-1.61,6.93.31l.15.16.15-.16c.13-.14.26-.26.39-.37,2.34-2.02,5.88-1.76,7.89.58.35.41.64.86.87,1.36l.13.29.21-.24c.25-.29.52-.55.79-.78,3.26-2.81,8.08-2.71,11.21.24l.13.12.14-.1c.59-.44,1.08-.83,1.52-1.21,11.04-9.53,12.27-26.26,2.74-37.3ZM30.69,34.85l-5.62-7.04-6.82,7.03h-.47s-2.67,0-2.67,0l8.56-8.81-8.7-10.89h6.68l5.79,7.01,6.78-6.98,3.14-.04-8.49,8.75,9.05,10.96h-7.22Z"/>
      <polygon class="cls-1" points="19.32 17.22 26.52 26.24 26.52 26.24 31.89 32.97 33.61 32.96 20.61 17.22 19.32 17.22"/>
    </g>
  </g>
</svg>